<svg width="178" height="80" viewBox="0 0 178 80" fill="none" xmlns="http://www.w3.org/2000/svg">
<path d="M10.8227 2.85005C11.8726 1.0557 13.9545 -0.116083 16.0311 0.00914562C39.5393 0.0180905 63.0457 0.00377869 86.5538 0.0163015C83.0857 5.14173 79.6548 10.294 76.1957 15.4266C75.6477 16.2336 75.1637 17.1225 74.3627 17.7113C73.2648 18.5503 71.8946 19.121 70.4978 19.0423C46.9985 19.028 23.4993 19.0618 0 19.026C3.55034 13.5982 7.22292 8.24561 10.8227 2.85005ZM99.9922 1.42244C101.001 0.601298 102.259 -0.0069552 103.583 0.00914562C119.125 0.0145126 134.666 0.0109346 150.208 0.0109346C152.941 0.059416 155.681 -0.110716 158.408 0.157631C163.628 0.853544 168.641 3.31518 172.241 7.20621C175.408 10.5872 177.419 15.0795 177.664 19.7291C178.072 25.1336 176.207 30.5005 173.145 34.8907C170.202 39.1234 166.235 42.5994 161.767 45.1272C157.055 47.7964 151.713 49.417 146.288 49.5013C132.611 49.4959 118.936 49.5048 105.261 49.4959C108.92 44.0413 112.589 38.5921 116.251 33.1393C117.221 31.5614 119.02 30.5739 120.842 30.4449C130.273 30.4449 139.704 30.4431 149.135 30.4468C151.651 30.4377 154.059 29.0336 155.471 26.9673C156.08 26.0388 156.512 24.9493 156.488 23.8223C156.512 22.4177 155.897 20.9722 154.756 20.1316C153.714 19.3444 152.384 18.9974 151.089 19.0401C130.047 19.0439 109.003 19.0312 87.9616 19.0455C91.346 13.8682 94.8496 8.76602 98.2786 3.61734C98.8142 2.86078 99.2501 2.00565 99.9922 1.42244V1.42244Z" fill="black"/>
<path d="M34.3746 30.4466C41.4087 30.4412 48.4428 30.4466 55.4752 30.4446C53.9217 45.0373 52.3967 59.6336 50.8931 74.2318C60.0964 60.4782 69.3388 46.7529 78.5491 33.0028C79.5634 31.5074 81.3144 30.5394 83.1098 30.4446H103.513C92.9893 46.1357 82.4568 61.8199 71.9332 77.511C70.894 78.9905 69.1323 79.8347 67.3654 79.9993H35.7038C35.4191 79.9689 34.8463 79.9099 34.5596 79.8814C32.9653 79.7652 31.4634 78.8259 30.6253 77.4626C29.9618 76.4321 29.7162 75.1566 29.8317 73.9454C30.8104 64.3941 31.8158 54.8481 32.8176 45.3003C32.9724 43.1821 33.3247 41.0819 33.4564 38.9603C33.8176 36.1284 34.0205 33.2803 34.3746 30.4466V30.4466ZM95.9503 63.3638C96.993 61.8932 98.7671 60.9522 100.557 60.8843C122.735 60.8952 144.91 60.87 167.085 60.8968C163.432 66.3335 159.78 71.7702 156.131 77.2087C155.104 78.9136 153.131 79.9478 151.163 79.9584L151.864 79.9995H84.9338C84.9693 79.826 85.0298 79.6632 85.117 79.5113C88.733 74.1317 92.3416 68.7486 95.9503 63.3638Z" fill="black"/>
</svg>
