<svg width="82" height="80" viewBox="0 0 82 80" fill="none" xmlns="http://www.w3.org/2000/svg">
<path d="M0.0986969 0.0726275C0.0422984 0.114091 0 8.10268 0 17.7913V35.427L2.25594 37.6384C3.49671 38.8546 4.51188 39.905 4.51188 39.9879C4.51188 40.0709 3.49671 41.1213 2.25594 42.3375L0 44.5489V80L40.8607 79.9724L81.7073 79.9309L81.7496 62.3228L81.7778 44.7148L79.4513 42.4066C78.1683 41.1351 77.1249 40.057 77.1249 40.0018C77.1249 39.9465 78.1683 38.8684 79.4513 37.5969L81.7778 35.2888L81.7496 17.6669L81.7073 0.0449854L40.9453 0.00352208C18.5269 -0.010299 0.140996 0.0173432 0.0986969 0.0726275V0.0726275ZM76.6737 18.9661L76.7019 32.9254L73.6705 35.9107C70.4417 39.0896 70.2725 39.3245 70.4417 40.4026C70.5122 40.9001 70.8506 41.2733 73.5295 43.9269C75.2638 45.6408 76.575 47.0505 76.6314 47.244C76.6737 47.4375 76.6878 53.7399 76.6737 61.2724L76.6314 74.9553L40.8607 74.9968L5.07586 75.0244L5.06176 61.3139C5.04766 53.7676 5.06176 47.4651 5.07586 47.3131C5.08996 47.1611 6.48582 45.6546 8.19188 43.9822L11.2797 40.914V39.0619L8.17778 35.9936L5.07586 32.9254V19.0352C5.07586 11.3921 5.11816 5.08968 5.17456 5.04822C5.21686 4.99294 21.3186 4.96529 40.9453 4.97912L76.6314 5.02058L76.6737 18.9661Z" fill="black"/>
<path d="M19.8793 14.4116C19.6174 14.6011 19.6028 14.8852 19.5592 25.2234C19.5446 32.0163 19.5737 35.9675 19.6756 36.1976L19.8211 36.5494H25.2484C31.2285 36.5494 31.505 36.5223 33.2365 35.6428C34.1241 35.1962 35.4918 33.8431 35.9574 32.95C36.132 32.5846 36.3503 32.1787 36.423 32.0569C36.4812 31.9351 36.6849 31.3532 36.845 30.7849C37.1069 29.8377 37.136 29.3235 37.136 25.3993C37.136 20.6633 37.0632 20.0408 36.2484 18.5253C35.0989 16.3331 33.382 15.0747 30.7338 14.4793C29.7881 14.2628 29.0169 14.2222 24.8991 14.2222C21.0433 14.2222 20.1121 14.2628 19.8793 14.4116V14.4116ZM29.8172 19.0124C30.4283 19.3236 30.8939 19.9325 31.1994 20.8527C31.4177 21.4887 31.4613 22.1788 31.4613 25.467C31.4613 28.9852 31.4322 29.4318 31.1703 30.2301C30.9375 30.9338 30.7484 31.2179 30.2828 31.5968C29.5844 32.1381 28.8132 32.2599 26.5142 32.1922L25.132 32.1516L25.0883 25.4264L25.0592 18.7012L25.3793 18.6606C25.5685 18.6335 26.5288 18.647 27.5328 18.6876C28.8859 18.7418 29.468 18.823 29.8172 19.0124ZM50.2604 14.5199C49.9839 14.8176 49.6347 15.5348 49.3583 16.4549C49.3001 16.6714 49.1546 17.0774 49.0527 17.3345C48.9654 17.5916 48.8053 18.0246 48.7035 18.2817C48.6016 18.5388 48.4416 18.9718 48.3543 19.2289C48.2524 19.486 48.1215 19.8784 48.0487 20.1085C47.976 20.325 47.845 20.7309 47.7432 20.988C47.6559 21.2451 47.4958 21.6781 47.394 21.9352C47.2921 22.1923 47.1321 22.6253 47.0448 22.8824C46.9429 23.1395 46.812 23.532 46.7392 23.762C46.6082 24.2085 46.3463 24.9122 46.1135 25.4535C46.0408 25.6429 45.9244 25.9677 45.8662 26.1977C45.7934 26.4142 45.6625 26.8201 45.5606 27.0773C45.4733 27.3344 45.3133 27.7674 45.2114 28.0245C45.1096 28.2816 44.9495 28.7146 44.8622 28.9717C44.7604 29.2288 44.6294 29.6212 44.5566 29.8512C44.4839 30.0677 44.3529 30.4737 44.2511 30.7308C44.1638 30.9879 44.0037 31.4209 43.9019 31.678C43.8 31.9351 43.64 32.3681 43.5527 32.6252C43.4508 32.8823 43.3199 33.2747 43.2471 33.5048C43.1016 33.9919 42.8397 34.682 42.5487 35.3586C42.3596 35.8187 42.3595 35.8999 42.5778 36.2111L42.8106 36.5494H47.4085L47.6559 36.0758C47.7868 35.8052 47.9614 35.3586 48.0342 35.088C48.1069 34.8173 48.2379 34.3979 48.3106 34.1814C48.3979 33.9513 48.5871 33.4101 48.7326 32.9635C48.8781 32.517 49.0527 32.111 49.14 32.0569C49.2128 32.0028 51.0315 31.9486 53.1704 31.9486H57.0554L57.2591 32.314C57.3755 32.5305 57.6083 33.153 57.7829 33.7078C58.7723 36.793 58.4668 36.5494 61.3623 36.5494C63.6612 36.5494 63.7631 36.5359 63.9231 36.2652C64.0832 35.9675 64.0104 35.5616 63.5448 34.3843C63.443 34.1272 62.861 32.4493 62.2353 30.6631C61.6242 28.877 61.0276 27.199 60.9258 26.9419C60.5475 25.9406 60.3874 25.5076 60.271 25.1152C60.1983 24.8851 60.0673 24.4927 59.9655 24.2356C59.8782 23.9785 59.7181 23.5455 59.6162 23.2884C59.5144 23.0313 59.3543 22.5983 59.267 22.3412C59.1652 22.0841 59.0342 21.6781 58.9615 21.4616C58.8887 21.2316 58.7578 20.8392 58.6559 20.5821C58.5686 20.325 58.4086 19.892 58.3067 19.6349C58.2049 19.3778 58.0157 18.823 57.8848 18.417C57.7392 18.0111 57.5355 17.4563 57.4337 17.1992C57.3318 16.9421 57.099 16.2925 56.9244 15.7783C56.4006 14.1951 56.4734 14.2222 53.2868 14.2222C50.6532 14.2222 50.5659 14.2357 50.2604 14.5199V14.5199ZM53.4615 20.5821C53.5779 20.9204 53.7961 21.5563 53.9416 22.0029C54.0726 22.4494 54.2763 23.0584 54.3781 23.3561C54.7419 24.4656 55.0038 25.2775 55.2511 26.0624C55.3966 26.5089 55.5712 27.0096 55.6294 27.1855C55.9205 27.9027 55.9641 27.8891 53.1268 27.8891H50.4786L50.5805 27.3073C50.6387 26.9961 50.7696 26.4954 50.8715 26.1977C50.9733 25.9 51.1771 25.2911 51.3226 24.8445C51.4535 24.398 51.6572 23.7891 51.7591 23.4914C51.8464 23.1937 52.0501 22.5847 52.181 22.1382C53.0104 19.4319 53.0395 19.4183 53.4615 20.5821V20.5821ZM19.8502 43.6129C19.7338 43.7212 19.6756 44.3842 19.6756 45.6968C19.6756 47.307 19.7192 47.6453 19.9229 47.7942C20.1121 47.943 21.1452 47.9972 24.87 48.0242C27.4455 48.0513 29.5698 48.1189 29.5698 48.1731C29.5698 48.2407 29.3952 48.5249 29.1769 48.8091C28.4494 49.8104 27.3727 51.2312 26.4997 52.3814C26.0195 53.0174 25.3357 53.924 24.9719 54.4112C24.6081 54.8983 23.9534 55.7778 23.5023 56.3732C21.9163 58.4706 21.1306 59.499 20.374 60.5004L19.6028 61.5153V63.4232C19.6028 64.844 19.661 65.3853 19.8065 65.5477C19.9811 65.7507 20.7669 65.7777 28.333 65.7777C36.2048 65.7777 36.6704 65.7642 36.8886 65.5342C37.2233 65.1959 37.2524 61.9212 36.9323 61.5017C36.7286 61.2582 36.4812 61.2446 31.6942 61.204C27.46 61.177 26.6597 61.1364 26.6597 60.974C26.6597 60.7981 27.3145 59.8915 29.1333 57.5234C30.0936 56.292 31.5341 54.3976 32.9455 52.5573C33.5275 51.786 34.4005 50.6629 34.8807 50.054C35.3754 49.4315 35.972 48.6331 36.2339 48.2813L36.6995 47.6318V45.7509C36.6995 44.2218 36.6558 43.8294 36.4667 43.667C36.263 43.4776 35.3172 43.4505 28.1293 43.4505C22.0182 43.4505 19.9811 43.4911 19.8502 43.6129V43.6129ZM44.4693 43.7347C44.2074 44.0053 44.1929 44.3842 44.1929 54.6141C44.1929 64.844 44.2074 65.2229 44.4693 65.4936C44.7313 65.7507 44.8913 65.7777 46.812 65.7777C48.6307 65.7777 48.9072 65.7507 49.1109 65.5342C49.3292 65.3041 49.3583 64.6681 49.3583 59.2419C49.3583 54.4923 49.4019 53.1933 49.5474 53.1933C49.6347 53.1933 49.7948 53.3286 49.8821 53.5045C50.0276 53.7887 51.3953 56.2244 52.8649 58.8495C53.2286 59.499 54.0871 61.0281 54.771 62.2595C55.4549 63.4909 56.1242 64.6546 56.2406 64.8576C56.7062 65.6965 56.9826 65.7777 59.3107 65.7777H61.4205L61.6533 65.3718C61.8424 65.0335 61.8715 63.6397 61.8715 54.6141C61.8715 45.5885 61.8424 44.1948 61.6533 43.8565L61.4205 43.4505H59.2816C57.7975 43.4505 57.0699 43.5047 56.9535 43.6129C56.8226 43.7347 56.7789 45.3044 56.7789 49.8239C56.7789 53.1527 56.7207 55.9132 56.6625 55.9538C56.4879 56.0485 56.066 55.4801 55.4112 54.2758C55.1056 53.721 54.5527 52.7062 54.1744 52.0431C53.7961 51.3665 53.054 50.0675 52.5302 49.1338C51.2498 46.8605 50.2458 45.0879 49.9694 44.6007C49.8384 44.3707 49.562 44.0324 49.3728 43.8159L49.009 43.4505H46.8847C44.8913 43.4505 44.7313 43.4641 44.4693 43.7347V43.7347Z" fill="black"/>
</svg>
