<svg width="183" height="80" viewBox="0 0 183 80" fill="none" xmlns="http://www.w3.org/2000/svg">
<path fill-rule="evenodd" clip-rule="evenodd" d="M155.042 0.0250274H182.489L137.213 45.8635H109.766L155.042 0.0250274ZM25.7713 45.8635H0L32.1542 13.2327C41.1816 3.53935 52.8303 0 67.3886 0H149.574L132.511 17.2775H66.3421C55.2641 17.2559 50.896 20.511 44.7345 26.7284L25.7713 45.8635Z" fill="black"/>
<path fill-rule="evenodd" clip-rule="evenodd" d="M145.048 79.9833V79.9998H133.172C129.943 79.9998 128.103 77.4156 128.027 75.0362L128.007 74.4383C127.934 72.1689 129.478 70.441 130.644 69.684L142.443 62.0215H128.864V58.5048H141.133C145.386 58.5048 147.544 60.5759 147.544 64.4612V79.9833H145.048ZM29.7956 58.1285H35.7874C40.0753 58.1285 43.5834 61.6538 43.5834 65.9626V72.1132C43.5834 76.4219 40.0753 79.9472 35.7874 79.9472H29.7956C25.5079 79.9472 21.9997 76.4219 21.9997 72.1132V65.9626C21.9997 61.6538 25.5079 58.1285 29.7956 58.1285ZM30.5816 61.3658H35.0016C37.5778 61.3658 39.6855 63.3617 39.6855 65.9503V72.2549C39.6855 74.8435 37.5775 76.8394 35.0016 76.8394H30.5816C28.0056 76.8394 25.8977 74.8438 25.8977 72.2549V65.9503C25.8977 63.3616 28.0055 61.3658 30.5816 61.3658ZM79.6002 62.4831C79.966 60.1347 81.2732 58.6013 83.259 58.6013H88.8C91.1897 58.6013 93.804 61.1208 93.8099 64.1856V79.9833H89.8798L89.8816 64.218C89.8818 63.1806 88.6391 62.0003 87.7368 62.0003H82.357C80.9788 62.0003 79.6356 63.0928 79.6356 64.7424V79.9833H75.7055L75.7048 64.2502C75.7048 63.0685 74.4484 62.0003 73.5946 62.0003H68.6497C67.3415 62.0003 65.5902 63.1642 65.5902 65.1585V79.9833H61.66V58.5048H65.5902V62.0863C66.5667 59.883 68.2396 58.6013 70.1154 58.6013H74.6255C76.9927 58.6013 79.2514 60.9069 79.6002 62.4831V62.4831ZM169.127 57.0964V76.2768H176.07V79.9998H157.386V76.2768H164.94V57.4542C164.94 57.0522 164.638 56.6921 164.207 56.6921H158.288V53.0505H164.94C167.657 53.0505 169.127 54.8884 169.127 57.0964V57.0964ZM46.9057 63.4901C46.9057 60.23 49.2511 58.4888 51.4969 58.4888H58.4874V62.2116H52.9299C51.6688 62.2116 50.8358 63.1417 50.8358 64.2469V79.9833H46.9057V63.4901ZM112.43 79.9673H104.876C100.284 79.9673 97.6491 77.1939 97.6112 72.3596L97.6113 72.3592V58.5048H101.542V72.3599H101.539C101.576 74.6384 102.42 76.0179 104.876 76.0179H112.43V58.5048H116.36V79.9833H112.43V79.9673ZM19.4109 64.5258V68.1833H3.99599V79.9833H0.065918V53.0499H1.00013V53.0498H20.0227V56.9991H3.99599V64.5258H19.4109ZM120.87 53.0499H125.058V79.9833H120.87V53.0499ZM143.613 64.9002L132.792 71.9463C132.314 72.2573 131.76 73.2341 131.777 73.9058L131.787 74.2824C131.807 75.0508 132.793 76.4712 134.107 76.4712H143.613V64.9002Z" fill="black"/>
<path fill-rule="evenodd" clip-rule="evenodd" d="M54.21 45.4425H30.6289L45.7722 30.1631C56.0869 19.7557 58.4657 20.1629 75.857 20.2211H129.517L114.132 35.6821L74.0558 35.6492C69.217 35.6452 64.2125 35.6089 59.4857 40.2559L54.21 45.4425Z" fill="black"/>
</svg>
