<svg width="63" height="80" viewBox="0 0 63 80" fill="none" xmlns="http://www.w3.org/2000/svg">
<path d="M0 1.71783C0 1.71783 12.9075 0 31.5748 0C50.3571 0 62.8221 1.71783 62.8221 1.71783V48.18C62.8221 66.4392 48.6372 80 31.4111 80C14.0412 80.0001 0 66.2562 0 48.589V1.71783Z" fill="black"/>
<path d="M23.0563 7.63086H20.1369V11.4332H17.0975V7.63086H14.1777V17.1967H17.0975V13.4342H20.1369V17.1967H23.0563V7.63086ZM33.214 15.275V7.63086H30.2945V17.1967H35.5739L36.0134 15.275H33.214V15.275ZM28.1352 7.63086H25.2158V17.1968H28.1352V7.63086ZM39.9728 7.63086H37.0537V17.1968H39.9728V7.63086ZM54.369 10.0722C54.369 9.55206 54.8896 9.31159 55.7285 9.31159C56.6485 9.31159 57.6491 9.51183 58.3284 9.79308L58.0889 7.7112C57.3283 7.55106 56.6485 7.43103 55.4091 7.43103C53.0493 7.43103 51.4503 8.36193 51.4503 10.313C51.4503 13.6741 56.01 12.9943 56.01 14.5551C56.01 15.155 55.5693 15.4747 54.4889 15.4747C53.5306 15.4747 52.0497 15.155 51.1701 14.7147L51.491 16.9166C52.37 17.2369 53.5698 17.3965 54.53 17.3965C56.9689 17.3965 58.9689 16.5958 58.9689 14.1942C58.9689 10.9934 54.369 11.5932 54.369 10.0722V10.0722ZM46.1325 14.9151C48.8499 14.9151 50.5702 13.514 50.5702 11.0732C50.5702 8.39143 48.731 7.43103 45.7315 7.43103C44.5717 7.43103 43.1713 7.51082 42.1717 7.63086V17.1967H45.0923V14.9151H46.1325V14.9151ZM47.6908 11.1128C47.6908 12.3537 47.0914 13.1942 45.5713 13.1942H45.2165V9.24185C45.3858 9.23234 45.4213 9.23234 45.5713 9.23234C47.0106 9.23234 47.6908 9.91243 47.6908 11.1128V11.1128ZM8.57928 14.9151C11.2988 14.9151 13.0183 13.514 13.0183 11.0732C13.0183 8.39143 11.1787 7.43103 8.17949 7.43103C7.01954 7.43103 5.61966 7.51082 4.62012 7.63086V17.1967H7.53909V14.9151H8.57928ZM10.1394 11.1128C10.1394 12.3537 9.53927 13.1942 8.01949 13.1942H7.67054V9.24185C7.84128 9.23234 7.86928 9.23234 8.01949 9.23234C9.45852 9.23234 10.1394 9.91243 10.1394 11.1128" fill="white"/>
<path d="M4.35764 51.9552C4.27337 51.1912 4.18609 49.6221 4.16772 48.5955C6.51414 49.813 10.0334 51.254 15.2472 51.254C27.888 51.254 33.5972 41.7812 46.0387 41.7812C51.1544 41.7812 55.485 43.2532 58.4109 45.0678C58.5379 46.1999 58.5753 47.332 58.6227 48.464C55.286 46.8255 51.8268 45.8494 47.5506 45.8494C34.7636 45.8494 29.5491 55.2564 16.7298 55.2564C11.775 55.2564 7.65443 53.9864 4.35764 51.9552V51.9552Z" fill="white"/>
<path d="M4.41382 45.1717C4.84584 41.4083 5.90532 38.5981 7.60006 35.4127L13.253 36.1358C14.3234 36.2752 15.0981 36.5002 15.6177 37.0711C16.1167 37.6317 16.335 37.9657 16.636 40.0716L17.4762 46.6693C17.4762 46.6693 15.758 46.9679 13.6181 46.9889C9.91083 46.9889 6.55221 46.0365 4.41382 45.1717V45.1717ZM8.16829 34.435C10.1627 31.139 13.1295 27.8691 17.206 25.4024L16.5323 30.4974C16.381 31.5947 16.2644 32.1263 15.6813 32.8091C15.1874 33.3564 14.3647 33.5698 13.4005 33.7452L8.16829 34.435V34.435ZM18.5407 28.0507L18.1536 24.8225C19.8325 23.8736 21.9373 22.9311 24.3543 22.3247L23.8795 25.94C23.6755 27.0796 23.1874 27.4362 21.9734 27.6198L18.5407 28.0507V28.0507ZM24.3327 34.0683L21.3271 33.6293C19.9077 33.333 19.1099 32.3418 18.9035 30.5599L18.6072 28.4159L22.174 28.9194C23.3506 29.0501 23.7681 29.6252 23.9248 30.8819L24.3327 34.0683V34.0683Z" fill="white"/>
<path d="M18.0015 46.5613L18.7236 40.4086C19.1617 37.3474 19.5606 36.56 22.1416 36.1507L29.4379 35.1866V34.6973L24.7563 34.1276L25.2164 30.5634C25.3343 29.5247 25.8183 29.0522 27.1226 28.8909L30.9204 28.3797V28.1021L26.8743 27.5763C25.71 27.3856 25.3399 26.897 25.2018 25.8308L24.727 22.2374C24.727 22.2374 27.5275 21.3901 31.4024 21.3901C46.4565 21.3901 55.401 32.7699 57.5855 41.0951C55.2946 39.6104 50.6265 37.4652 45.0161 37.4652C33.6627 37.4654 27.9011 44.6953 18.0015 46.5613V46.5613ZM31.3952 75.8272C19.8853 75.8272 8.96476 68.6474 5.18286 55.9872C8.51274 58.09 13.2963 59.6316 17.9129 59.6316C29.9346 59.6316 35.7573 51.987 44.7582 50.3881L43.8079 57.8352C43.475 59.7574 42.9472 60.5915 40.637 60.9751L33.2519 61.9151V62.4212L40.1824 63.299C42.4813 63.5468 43.5515 64.308 43.7975 66.5733L44.5721 72.4091C42.3005 73.7693 37.4598 75.8272 31.3952 75.8272H31.3952ZM45.4811 71.9339L46.0596 67.2756C46.4405 64.6466 46.8626 63.6965 49.4164 63.3714L54.7125 62.6879C52.0313 67.0232 49.0462 69.6324 45.4812 71.9339H45.4811ZM55.2521 61.7601L49.9019 61.0577C47.1477 60.7356 46.4614 60.0589 46.1112 57.3807L45.2023 50.3158C45.2023 50.3158 47.0329 50.0059 49.1169 50.0059C52.2271 50.0059 56.4641 51.0054 58.4334 51.8754C57.9738 55.1703 57.3592 57.8455 55.2521 61.7601Z" fill="white"/>
<path d="M38.099 73.938H38.3219L38.7199 70.9332C38.9081 69.7074 39.3793 69.6132 40.2442 69.4554L43.1776 69.0836V68.8564L40.0216 68.4506C39.1868 68.321 38.8645 67.8823 38.7349 67.155L38.3347 64.0122H38.0972L37.6858 67.2116C37.5198 67.9844 37.2177 68.2939 36.3814 68.4329L33.2415 68.8564V69.0836L36.2627 69.4705C37.2601 69.5983 37.6263 70.0607 37.7302 71.0079L38.099 73.938V73.938Z" fill="black"/>
</svg>
