<svg width="50" height="50" viewBox="0 0 50 50" fill="currentColor" xmlns="http://www.w3.org/2000/svg">
<path fill-rule="evenodd" clip-rule="evenodd" d="M19.922 26.6557C19.3069 26.1891 18.4866 25.957 17.4775 25.957H12.3809V31.8203H17.3835C17.8462 31.8203 18.2851 31.7793 18.6981 31.6869C19.1173 31.5953 19.4892 31.45 19.8027 31.2353C20.1162 31.0288 20.3759 30.7457 20.5647 30.3857C20.7542 30.0289 20.8449 29.5654 20.8449 29.0056C20.8449 27.908 20.5363 27.1291 19.922 26.6557Z" fill="currentColor"/>
<path fill-rule="evenodd" clip-rule="evenodd" d="M19.1878 22.1597C19.727 21.7661 19.9884 21.1155 19.9884 20.2233C19.9884 19.7278 19.9016 19.3184 19.727 19.0007C19.5463 18.6829 19.307 18.4342 19.0046 18.2602C18.7046 18.0789 18.3658 17.9538 17.9726 17.8863C17.5866 17.8108 17.1815 17.7812 16.7669 17.7812H12.3809V22.7566H17.1246C17.9554 22.7566 18.6431 22.5596 19.1878 22.1597Z" fill="currentColor"/>
<path fill-rule="evenodd" clip-rule="evenodd" d="M0 0V50H50V0H0ZM30.2897 15.5826H38.9204V17.6837H30.2897V15.5826ZM24.9016 32.0557C24.4848 32.8474 23.9171 33.4888 23.2175 33.9838C22.5124 34.4833 21.7023 34.8496 20.7951 35.088C19.8981 35.3265 18.9665 35.4465 18.0126 35.4465H7.69231V14.1543H17.7309C18.7495 14.1543 19.6685 14.2423 20.5086 14.4244C21.344 14.6016 22.0569 14.8974 22.6593 15.3027C23.2523 15.7082 23.7166 16.2475 24.0489 16.9269C24.3734 17.5962 24.5362 18.4343 24.5362 19.4252C24.5362 20.497 24.293 21.3923 23.8066 22.108C23.3163 22.8225 22.5963 23.4089 21.6337 23.8641C22.9444 24.2407 23.9148 24.904 24.5582 25.847C25.2049 26.7966 25.5215 27.9326 25.5215 29.2647C25.5214 30.3444 25.3146 31.2742 24.9016 32.0557ZM42.2808 28.7574H31.1558C31.1558 29.976 31.5679 31.13 32.2044 31.7493C32.8384 32.3688 33.7551 32.6802 34.9425 32.6802C35.7968 32.6802 36.5351 32.4643 37.1541 32.034C37.7676 31.6041 38.141 31.1445 38.2855 30.6673H42.0146C41.4154 32.5231 40.5058 33.8479 39.2654 34.6455C38.0392 35.4465 36.5436 35.8456 34.8012 35.8456C33.5868 35.8456 32.4941 35.649 31.5126 35.2618C30.532 34.8697 29.7124 34.3202 29.0232 33.6041C28.3512 32.8844 27.8293 32.0341 27.4575 31.0348C27.0896 30.0411 26.904 28.9409 26.904 27.7486C26.904 26.5958 27.0966 25.5188 27.4732 24.5235C27.8577 23.5247 28.3891 22.663 29.0879 21.9401C29.7882 21.2133 30.6188 20.6397 31.586 20.2209C32.5533 19.8035 33.6199 19.5935 34.8012 19.5935C36.1055 19.5935 37.248 19.8445 38.2271 20.3558C39.203 20.86 40.0029 21.5434 40.6313 22.3989C41.2598 23.2529 41.7067 24.2296 41.9863 25.3251C42.2634 26.4187 42.3606 27.5612 42.2808 28.7574Z" fill="currentColor"/>
<path fill-rule="evenodd" clip-rule="evenodd" d="M34.6744 22.791C33.9978 22.791 33.4379 22.9048 32.9895 23.1368C32.5513 23.3659 32.1921 23.6508 31.9173 23.9864C31.6442 24.3275 31.4578 24.6875 31.3497 25.0724C31.2408 25.4475 31.176 25.7878 31.1562 26.0887H38.046C37.9449 25.0089 37.5754 24.2107 37.0701 23.6494C36.567 23.0922 35.7143 22.791 34.6744 22.791Z" fill="currentColor"/>
</svg>
