<svg width="50" height="50" viewBox="0 0 50 50" fill="none" xmlns="http://www.w3.org/2000/svg">
<path d="M0 3.58164C0 1.60469 1.65508 0 3.69531 0H46.3047C48.3457 0 50 1.60469 50 3.58164V46.4189C50 48.3965 48.3457 50 46.3047 50H3.69531C1.65527 50 0 48.3967 0 46.4195V3.58105V3.58164Z" fill="black"/>
<path d="M15.1945 41.8437V19.3336H7.7125V41.8437H15.1953H15.1945ZM11.4551 16.2607C14.0637 16.2607 15.6877 14.5322 15.6877 12.3721C15.6389 10.1627 14.0637 8.48242 11.5047 8.48242C8.94395 8.48242 7.27148 10.1627 7.27148 12.3719C7.27148 14.532 8.89492 16.2605 11.4061 16.2605H11.4545L11.4551 16.2607ZM19.3359 41.8437H26.8174V29.2744C26.8174 28.6025 26.8662 27.9289 27.0639 27.449C27.6045 26.1043 28.8355 24.7123 30.9029 24.7123C33.6096 24.7123 34.693 26.7764 34.693 29.8027V41.8437H42.1742V28.9371C42.1742 22.0232 38.4836 18.8059 33.5611 18.8059C29.5254 18.8059 27.7529 21.0615 26.7682 22.5978H26.818V19.3344H19.3363C19.434 21.4461 19.3357 41.8445 19.3357 41.8445L19.3359 41.8437Z" fill="white"/>
</svg>
