<svg width="52" height="50" viewBox="0 0 52 50" fill="none" xmlns="http://www.w3.org/2000/svg">
<g clip-path="url(#clip0)">
<path d="M25.5996 0C11.4632 0 0 11.4612 0 25.5996C0 36.9104 7.33506 46.5062 17.5066 49.8912C18.786 50.1281 19.2558 49.3359 19.2558 48.6597C19.2558 48.0493 19.2319 46.0325 19.2211 43.8935C12.099 45.4421 10.5962 40.8731 10.5962 40.8731C9.43174 37.9141 7.75387 37.1274 7.75387 37.1274C5.43133 35.5385 7.92895 35.571 7.92895 35.571C10.4997 35.7517 11.8533 38.2092 11.8533 38.2092C14.1365 42.1229 17.8419 40.9913 19.3028 40.3374C19.5325 38.6826 20.196 37.5535 20.928 36.9142C15.2421 36.2667 9.26469 34.0717 9.26469 24.2627C9.26469 21.4679 10.2647 19.1841 11.9025 17.3914C11.6366 16.7465 10.7605 14.1429 12.1504 10.6167C12.1504 10.6167 14.3001 9.92865 19.1921 13.2408C21.234 12.6734 23.424 12.3891 25.5996 12.3795C27.7752 12.3891 29.9669 12.6734 32.0127 13.2408C36.899 9.92865 39.0456 10.6167 39.0456 10.6167C40.439 14.1429 39.5624 16.7465 39.2966 17.3914C40.9379 19.1841 41.9312 21.4677 41.9312 24.2627C41.9312 34.095 35.9425 36.2601 30.2421 36.8937C31.1603 37.6882 31.9784 39.2462 31.9784 41.6344C31.9784 45.0596 31.9487 47.8164 31.9487 48.6597C31.9487 49.3409 32.4095 50.1392 33.7073 49.8878C43.8732 46.4989 51.1991 36.9066 51.1991 25.5996C51.1991 11.4612 39.7375 0 25.5996 0Z" fill="#161614"/>
<path d="M9.588 36.4673C9.53178 36.5944 9.33141 36.6325 9.14931 36.5454C8.96359 36.4619 8.85919 36.2884 8.91942 36.1607C8.97463 36.0298 9.175 35.9933 9.36032 36.0812C9.54644 36.1645 9.65244 36.3396 9.588 36.4673V36.4673ZM10.8472 37.5908C10.7252 37.7041 10.4865 37.6515 10.3244 37.4726C10.157 37.2941 10.1257 37.0556 10.2495 36.9405C10.3754 36.8275 10.6069 36.8803 10.7748 37.059C10.9422 37.2395 10.9747 37.4766 10.847 37.591L10.8472 37.5908ZM11.7112 39.0284C11.5542 39.1374 11.2976 39.0352 11.1392 38.8075C10.9824 38.58 10.9824 38.307 11.1426 38.1976C11.3016 38.0881 11.5542 38.1865 11.7148 38.4124C11.8714 38.6439 11.8714 38.9169 11.711 39.0286L11.7112 39.0284ZM13.172 40.6934C13.0317 40.848 12.7329 40.8066 12.5141 40.5954C12.2904 40.389 12.228 40.0961 12.3687 39.9413C12.5107 39.7863 12.8112 39.8299 13.0317 40.0393C13.2539 40.2453 13.3218 40.5404 13.1722 40.6934H13.172ZM15.0601 41.2556C14.9984 41.4559 14.7105 41.5471 14.4206 41.4619C14.1311 41.3742 13.9416 41.1393 14 40.9367C14.0602 40.7349 14.3493 40.64 14.6415 40.7311C14.9306 40.8185 15.1205 41.0516 15.0603 41.2556H15.0601ZM17.2092 41.4939C17.2164 41.7051 16.9704 41.8802 16.6661 41.884C16.3599 41.8906 16.1123 41.7197 16.1091 41.5121C16.1091 41.2989 16.3494 41.1255 16.6554 41.1204C16.9598 41.1144 17.2092 41.2841 17.2092 41.4939V41.4939ZM19.3201 41.413C19.3566 41.619 19.145 41.8306 18.8429 41.8868C18.5457 41.941 18.2706 41.8139 18.2327 41.6097C18.1958 41.3985 18.4114 41.1871 18.7079 41.1323C19.0107 41.0797 19.2815 41.2036 19.3201 41.413" fill="#161614"/>
</g>
<defs>
<clipPath id="clip0">
<rect width="51.398" height="50" fill="white"/>
</clipPath>
</defs>
</svg>
